<svg width="20" height="15" viewBox="0 0 20 15" fill="none" xmlns="http://www.w3.org/2000/svg">
<g id="Air">
<path d="M8.11026 3.75941L4.87208 2.4193C4.56222 2.29059 4.36111 1.98804 4.36111 1.65252C4.36111 1.31699 4.56305 1.01444 4.87291 0.885733L6.85567 0.0629034C7.05938 -0.0209678 7.28797 -0.0209678 7.49168 0.0629034L11.8823 1.87711C11.9589 1.90972 12.0085 1.98488 12.0085 2.06808C12.0085 2.15128 11.9589 2.22644 11.8823 2.25905L8.43491 3.75941C8.33118 3.80347 8.21399 3.80347 8.11026 3.75941Z" fill="#555555"/>
<path d="M16.6898 1.07176C17.7486 0.633181 18.9625 1.13569 19.4016 2.19433C19.8401 3.25338 19.3371 4.46656 18.2782 4.90526L14.6705 6.24952C14.5719 6.28617 14.4909 6.35887 14.4438 6.45295L11.331 12.6802C11.2502 12.8415 11.1191 12.9721 10.9574 13.0522L8.70728 14.1772C8.40186 14.3298 8.03421 14.2798 7.78058 14.0513C7.52695 13.8228 7.43903 13.4623 7.55898 13.1427L9.18305 8.80934C9.21233 8.73237 9.19313 8.64535 9.13418 8.58784C9.07523 8.53033 8.98777 8.5133 8.91154 8.54448L4.24773 10.411C3.93952 10.5342 3.58752 10.4621 3.35267 10.2275L0.243187 7.11802C0.0481746 6.923 -0.0372728 6.64387 0.0151502 6.3731C0.0675731 6.10233 0.251024 5.87526 0.504732 5.76712L2.6685 4.83967C2.89312 4.74466 3.14794 4.75193 3.36678 4.8596L5.33958 5.846C5.44941 5.90114 5.57802 5.90479 5.6908 5.85596L16.6832 1.07176H16.6898Z" fill="#555555"/>
</g>
</svg>
