<svg width="14" height="16" viewBox="0 0 14 16" fill="none" xmlns="http://www.w3.org/2000/svg">
<g id="Group">
<g id="task-checklist">
<path id="Shape" d="M10 6.40001H4C3.72386 6.40001 3.5 6.61491 3.5 6.88001C3.5 7.14511 3.72386 7.36001 4 7.36001H10C10.2761 7.36001 10.5 7.14511 10.5 6.88001C10.5 6.61491 10.2761 6.40001 10 6.40001Z" fill="#5383EC"/>
<path id="Shape_2" d="M10.5 9.11936C10.5 8.85426 10.2761 8.63936 10 8.63936H4C3.72386 8.63936 3.5 8.85426 3.5 9.11936C3.5 9.38446 3.72386 9.59936 4 9.59936H10C10.2761 9.59936 10.5 9.38446 10.5 9.11936Z" fill="#5383EC"/>
<path id="Shape_3" d="M5.66653 4.8H8.3332C8.70139 4.8 8.99987 4.51347 8.99987 4.16V2.56C8.99875 1.95965 8.70587 1.3942 8.20791 1.03102C7.70995 0.667845 7.06397 0.548562 6.4612 0.708483C5.58155 0.954746 4.98279 1.73619 4.99987 2.61568V4.16C4.99987 4.51347 5.29834 4.8 5.66653 4.8Z" fill="#5383EC"/>
<path id="Shape_4" d="M11.9998 2.56H10.1665C10.0745 2.56 9.99984 2.63163 9.99984 2.72V3.68C9.99984 3.76836 10.0745 3.84 10.1665 3.84H11.6665C11.8506 3.84 11.9998 3.98327 11.9998 4.16V12.3469C12 12.4318 11.965 12.5133 11.9025 12.5734L9.76384 14.6259C9.70137 14.6857 9.61674 14.7193 9.5285 14.7194H2.33317C2.14908 14.7194 1.99984 14.5761 1.99984 14.3994V4.16C1.99984 3.98327 2.14908 3.84 2.33317 3.84H3.83317C3.92522 3.84 3.99984 3.76836 3.99984 3.68V2.72C3.99984 2.63163 3.92522 2.56 3.83317 2.56H1.99984C1.26346 2.56 0.666504 3.13307 0.666504 3.84V14.72C0.666504 15.4269 1.26346 16 1.99984 16H11.9998C12.7362 16 13.3332 15.4269 13.3332 14.72V3.84C13.3332 3.13307 12.7362 2.56 11.9998 2.56Z" fill="#5383EC"/>
<path id="Shape_5" d="M4 10.88C3.72386 10.88 3.5 11.0949 3.5 11.36C3.5 11.6251 3.72386 11.84 4 11.84H6.5C6.77614 11.84 7 11.6251 7 11.36C7 11.0949 6.77614 10.88 6.5 10.88H4Z" fill="#5383EC"/>
</g>
</g>
</svg>
